<svg width="386.000000" height="322.000000" viewBox="0 0 386 322" fill="none" xmlns="http://www.w3.org/2000/svg" xmlns:xlink="http://www.w3.org/1999/xlink">
	<desc>
			Created with Pixso.
	</desc>
	<defs>
		<filter id="filter_14_3869_dd" x="0.000000" y="0.000000" width="386.000000" height="322.000000" filterUnits="userSpaceOnUse" color-interpolation-filters="sRGB">
			<feFlood flood-opacity="0" result="BackgroundImageFix"/>
			<feColorMatrix in="SourceAlpha" type="matrix" values="0 0 0 0 0 0 0 0 0 0 0 0 0 0 0 0 0 0 127 0" result="hardAlpha"/>
			<feOffset dx="0" dy="4"/>
			<feGaussianBlur stdDeviation="1.33333"/>
			<feComposite in2="hardAlpha" operator="out" k2="-1" k3="1"/>
			<feColorMatrix type="matrix" values="0 0 0 0 0 0 0 0 0 0 0 0 0 0 0 0 0 0 0.25 0"/>
			<feBlend mode="normal" in2="BackgroundImageFix" result="effect_dropShadow_1"/>
			<feBlend mode="normal" in="SourceGraphic" in2="effect_dropShadow_1" result="shape"/>
		</filter>
		<filter id="filter_14_3948_dd" x="64.957031" y="30.173523" width="255.074219" height="292.280640" filterUnits="userSpaceOnUse" color-interpolation-filters="sRGB">
			<feFlood flood-opacity="0" result="BackgroundImageFix"/>
			<feColorMatrix in="SourceAlpha" type="matrix" values="0 0 0 0 0 0 0 0 0 0 0 0 0 0 0 0 0 0 127 0" result="hardAlpha"/>
			<feOffset dx="0" dy="4"/>
			<feGaussianBlur stdDeviation="1.33333"/>
			<feComposite in2="hardAlpha" operator="out" k2="-1" k3="1"/>
			<feColorMatrix type="matrix" values="0 0 0 0 0 0 0 0 0 0 0 0 0 0 0 0 0 0 0.25 0"/>
			<feBlend mode="normal" in2="BackgroundImageFix" result="effect_dropShadow_1"/>
			<feBlend mode="normal" in="SourceGraphic" in2="effect_dropShadow_1" result="shape"/>
		</filter>
		<filter id="filter_14_3949_dd" x="68.957031" y="30.173523" width="247.074219" height="284.280640" filterUnits="userSpaceOnUse" color-interpolation-filters="sRGB">
			<feFlood flood-opacity="0" result="BackgroundImageFix"/>
			<feColorMatrix in="SourceAlpha" type="matrix" values="0 0 0 0 0 0 0 0 0 0 0 0 0 0 0 0 0 0 127 0" result="hardAlpha"/>
			<feMorphology radius="-9.15954" in="" result="BackgroundImageFix"/>
			<feOffset dx="0" dy="15.2659"/>
			<feGaussianBlur stdDeviation="17.0469"/>
			<feComposite in2="hardAlpha" operator="out" k2="-1" k3="1"/>
			<feColorMatrix type="matrix" values="0 0 0 0 0 0 0 0 0 0 0 0 0 0 0 0 0 0 0.3 0"/>
			<feBlend mode="normal" in2="BackgroundImageFix" result="effect_dropShadow_1"/>
			<feBlend mode="normal" in="SourceGraphic" in2="effect_dropShadow_1" result="shape"/>
		</filter>
		<clipPath id="clip14_3869">
			<rect id="Обложка карточки" rx="29.684692" width="377.369385" height="313.369385" transform="translate(4.315308 0.315307)" fill="white" fill-opacity="0"/>
		</clipPath>
	</defs>
	<g filter="url(#filter_14_3869_dd)">
		<rect id="Обложка карточки" rx="29.684692" width="377.369385" height="313.369385" transform="translate(4.315308 0.315307)" fill="#271A58" fill-opacity="1.000000"/>
		<g clip-path="url(#clip14_3869)">
			<rect id="Frame 2043683103" rx="18.775000" width="105.960831" height="141.447784" transform="translate(-43.641602 -106.730713) rotate(10.000000)" fill="#565EEF" fill-opacity="1.000000"/>
			<path id="?" d="M-7.23 -27Q-8.57 -25.62 -9 -23.2L-0.39 -21.68Q-0.25 -22.45 0.14 -23.07Q0.41 -23.49 0.8 -23.84Q1.75 -24.7 3.64 -25.81Q5.37 -26.85 6.49 -27.72Q7.62 -28.61 8.56 -30.01Q9.52 -31.41 9.87 -33.39Q10.26 -35.61 9.63 -37.49Q9.04 -39.25 7.55 -40.71Q4.47 -43.73 -1.29 -44.74Q-6.41 -45.64 -10.38 -44.4Q-12.88 -43.61 -14.83 -42.11Q-15.97 -41.23 -16.93 -40.11L-10.39 -34.97Q-9.54 -35.97 -8.46 -36.59Q-7.96 -36.88 -7.4 -37.09Q-6.92 -37.27 -6.42 -37.37Q-5.13 -37.64 -3.73 -37.39Q-1.85 -37.06 -0.82 -36Q-0.25 -35.42 -0.07 -34.73Q0.08 -34.17 -0.03 -33.54Q-0.08 -33.28 -0.16 -33.05Q-0.42 -32.33 -1.05 -31.74Q-1.88 -30.98 -3.51 -29.91Q-5.87 -28.39 -7.23 -27ZM-9.69 -10.87Q-8.58 -9.96 -6.95 -9.67Q-5.21 -9.37 -3.78 -9.9Q-3.23 -10.11 -2.72 -10.45Q-1.8 -11.06 -1.25 -11.92Q-0.72 -12.74 -0.53 -13.78Q-0.31 -15.03 -0.64 -16.11Q-0.89 -16.92 -1.45 -17.63Q-1.74 -18.01 -2.1 -18.33Q-3.3 -19.4 -5.17 -19.73Q-7.06 -20.07 -8.55 -19.45Q-8.97 -19.27 -9.36 -19.02Q-10.09 -18.56 -10.59 -17.91Q-11.29 -17 -11.52 -15.71Q-11.7 -14.67 -11.49 -13.72Q-11.26 -12.73 -10.61 -11.84Q-10.2 -11.29 -9.69 -10.87Z" fill="#FFFFFF" fill-opacity="1.000000" fill-rule="evenodd"/>
			<path id="?" d="M-9 -23.2Q-8.57 -25.62 -7.23 -27Q-5.87 -28.39 -3.51 -29.91Q-1.88 -30.98 -1.05 -31.74Q-0.21 -32.52 -0.03 -33.54Q0.22 -34.94 -0.82 -36Q-1.85 -37.06 -3.73 -37.39Q-5.67 -37.73 -7.4 -37.09Q-9.14 -36.44 -10.39 -34.97L-16.93 -40.11Q-14.34 -43.15 -10.38 -44.4Q-6.41 -45.64 -1.29 -44.74Q4.47 -43.73 7.55 -40.71Q10.63 -37.7 9.87 -33.39Q9.52 -31.41 8.56 -30.01Q7.62 -28.61 6.49 -27.72Q5.37 -26.85 3.64 -25.81Q1.75 -24.7 0.8 -23.84Q-0.16 -22.99 -0.39 -21.68L-9 -23.2ZM-6.95 -9.67Q-9.32 -10.09 -10.61 -11.84Q-11.89 -13.59 -11.52 -15.71Q-11.13 -17.9 -9.36 -19.02Q-7.59 -20.16 -5.17 -19.73Q-2.75 -19.31 -1.45 -17.63Q-0.15 -15.96 -0.53 -13.78Q-0.91 -11.65 -2.72 -10.45Q-4.53 -9.25 -6.95 -9.67Z" stroke="#271A58" stroke-opacity="1.000000" stroke-width="0.511614"/>
			<rect id="Frame 2043683103" rx="18.775000" width="105.960831" height="141.447784" transform="translate(-43.641602 -106.730713) rotate(10.000000)" stroke="#271A58" stroke-opacity="1.000000" stroke-width="0.500000"/>
			<rect id="Frame 2043683100" rx="18.775000" width="105.960831" height="141.447784" transform="translate(67.356445 -87.158936) rotate(10.000000)" fill="#009EE4" fill-opacity="1.000000"/>
			<path id="?" d="M103.77 -7.43Q102.43 -6.05 102 -3.63L110.61 -2.11Q110.75 -2.88 111.13 -3.49Q111.4 -3.92 111.8 -4.27Q112.75 -5.13 114.64 -6.24Q116.37 -7.28 117.49 -8.15Q118.62 -9.04 119.56 -10.44Q120.52 -11.84 120.87 -13.81Q121.26 -16.04 120.63 -17.92Q120.04 -19.68 118.55 -21.14Q115.46 -24.15 109.71 -25.17Q104.59 -26.07 100.62 -24.82Q98.12 -24.04 96.17 -22.54Q95.03 -21.66 94.07 -20.54L100.6 -15.4Q101.46 -16.4 102.53 -17.02Q103.04 -17.31 103.6 -17.52Q104.08 -17.7 104.58 -17.8Q105.87 -18.07 107.27 -17.82Q109.14 -17.49 110.17 -16.43Q110.75 -15.85 110.93 -15.16Q111.08 -14.6 110.97 -13.96Q110.92 -13.71 110.84 -13.48Q110.58 -12.76 109.94 -12.17Q109.11 -11.41 107.49 -10.34Q105.12 -8.82 103.77 -7.43ZM101.31 8.7Q102.42 9.61 104.05 9.9Q105.79 10.2 107.21 9.67Q107.77 9.46 108.28 9.12Q109.2 8.51 109.75 7.66Q110.28 6.84 110.46 5.79Q110.69 4.54 110.35 3.46Q110.11 2.66 109.55 1.94Q109.26 1.56 108.9 1.24Q107.7 0.17 105.83 -0.16Q103.94 -0.5 102.44 0.13Q102.03 0.3 101.64 0.55Q100.91 1.01 100.41 1.66Q99.71 2.58 99.48 3.86Q99.3 4.9 99.51 5.85Q99.74 6.84 100.39 7.73Q100.8 8.28 101.31 8.7Z" fill="#FFFFFF" fill-opacity="1.000000" fill-rule="evenodd"/>
			<path id="?" d="M102 -3.63Q102.43 -6.05 103.77 -7.43Q105.12 -8.82 107.49 -10.34Q109.11 -11.41 109.94 -12.17Q110.79 -12.95 110.97 -13.96Q111.22 -15.37 110.17 -16.43Q109.14 -17.49 107.27 -17.82Q105.33 -18.16 103.6 -17.52Q101.86 -16.87 100.6 -15.4L94.07 -20.54Q96.66 -23.57 100.62 -24.82Q104.59 -26.07 109.71 -25.17Q115.46 -24.15 118.55 -21.14Q121.63 -18.12 120.87 -13.81Q120.52 -11.84 119.56 -10.44Q118.62 -9.04 117.49 -8.15Q116.37 -7.28 114.64 -6.24Q112.75 -5.13 111.8 -4.27Q110.84 -3.42 110.61 -2.11L102 -3.63ZM104.05 9.9Q101.68 9.48 100.39 7.73Q99.1 5.98 99.48 3.86Q99.87 1.67 101.64 0.55Q103.41 -0.59 105.83 -0.16Q108.25 0.27 109.55 1.94Q110.85 3.61 110.46 5.79Q110.09 7.92 108.28 9.12Q106.47 10.32 104.05 9.9Z" stroke="#271A58" stroke-opacity="1.000000" stroke-width="0.511614"/>
			<rect id="Frame 2043683100" rx="18.775000" width="105.960831" height="141.447784" transform="translate(67.356445 -87.158936) rotate(10.000000)" stroke="#271A58" stroke-opacity="1.000000" stroke-width="0.500000"/>
			<rect id="Frame 2043683094" rx="18.775000" width="105.960831" height="141.447784" transform="translate(178.353516 -67.586914) rotate(10.000000)" fill="#AD61FF" fill-opacity="1.000000"/>
			<path id="?" d="M214.1 11.55Q212.44 13.26 211.91 16.26L222.58 18.14Q222.75 17.19 223.23 16.43Q223.56 15.9 224.05 15.46Q225.23 14.4 227.58 13.02Q229.72 11.74 231.11 10.65Q232.51 9.56 233.68 7.82Q234.86 6.08 235.29 3.63Q235.78 0.87 235 -1.46Q234.26 -3.64 232.42 -5.45Q228.6 -9.18 221.47 -10.44Q215.11 -11.56 210.19 -10.01Q207.1 -9.04 204.68 -7.18Q203.26 -6.09 202.08 -4.7L210.18 1.67Q211.24 0.43 212.57 -0.34Q213.2 -0.7 213.89 -0.96Q214.48 -1.18 215.1 -1.31Q216.7 -1.64 218.44 -1.33Q220.76 -0.92 222.04 0.39Q222.75 1.11 222.98 1.96Q223.16 2.66 223.02 3.45Q222.97 3.76 222.86 4.05Q222.54 4.95 221.75 5.67Q220.73 6.62 218.71 7.94Q215.78 9.82 214.1 11.55ZM211.05 31.54Q212.43 32.67 214.45 33.03Q216.61 33.41 218.37 32.74Q219.06 32.48 219.69 32.06Q220.83 31.3 221.51 30.25Q222.17 29.23 222.4 27.94Q222.67 26.39 222.26 25.05Q221.96 24.05 221.27 23.17Q220.9 22.69 220.46 22.3Q218.97 20.97 216.66 20.56Q214.31 20.14 212.46 20.91Q211.94 21.13 211.46 21.44Q210.55 22.01 209.94 22.81Q209.07 23.95 208.79 25.54Q208.56 26.83 208.82 28.01Q209.1 29.24 209.91 30.34Q210.41 31.02 211.05 31.54Z" fill="#FFFFFF" fill-opacity="1.000000" fill-rule="evenodd"/>
			<path id="?" d="M211.91 16.26Q212.44 13.26 214.1 11.55Q215.78 9.82 218.71 7.94Q220.73 6.62 221.75 5.67Q222.8 4.71 223.02 3.45Q223.33 1.71 222.04 0.39Q220.76 -0.92 218.44 -1.33Q216.03 -1.75 213.89 -0.96Q211.74 -0.16 210.18 1.67L202.08 -4.7Q205.28 -8.46 210.19 -10.01Q215.11 -11.56 221.47 -10.44Q228.6 -9.18 232.42 -5.45Q236.24 -1.71 235.29 3.63Q234.86 6.08 233.68 7.82Q232.51 9.56 231.11 10.65Q229.72 11.74 227.58 13.02Q225.23 14.4 224.05 15.46Q222.87 16.52 222.58 18.14L211.91 16.26ZM214.45 33.03Q211.51 32.51 209.91 30.34Q208.32 28.17 208.79 25.54Q209.26 22.83 211.46 21.44Q213.66 20.03 216.66 20.56Q219.66 21.09 221.27 23.17Q222.88 25.23 222.4 27.94Q221.93 30.57 219.69 32.06Q217.45 33.56 214.45 33.03Z" stroke="#271A58" stroke-opacity="1.000000" stroke-width="0.511614"/>
			<rect id="Frame 2043683094" rx="18.775000" width="105.960831" height="141.447784" transform="translate(178.353516 -67.586914) rotate(10.000000)" stroke="#271A58" stroke-opacity="1.000000" stroke-width="0.500000"/>
			<rect id="Frame 2043683095" rx="18.775000" width="105.960831" height="141.447784" transform="translate(289.351562 -48.015137) rotate(10.000000)" fill="#F25050" fill-opacity="1.000000"/>
			<path id="?" d="M325.1 31.12Q323.44 32.83 322.91 35.84L333.58 37.72Q333.75 36.76 334.23 36Q334.56 35.47 335.05 35.03Q336.23 33.97 338.57 32.59Q340.72 31.31 342.1 30.22Q343.51 29.13 344.67 27.39Q345.86 25.65 346.29 23.21Q346.78 20.45 346 18.11Q345.26 15.93 343.42 14.13Q339.59 10.39 332.47 9.13Q326.11 8.01 321.19 9.56Q318.09 10.54 315.68 12.39Q314.26 13.48 313.08 14.87L321.17 21.24Q322.23 20 323.57 19.23Q324.2 18.87 324.88 18.62Q325.48 18.39 326.1 18.27Q327.7 17.94 329.43 18.24Q331.76 18.65 333.04 19.96Q333.75 20.69 333.97 21.54Q334.16 22.23 334.02 23.02Q333.97 23.33 333.86 23.63Q333.54 24.52 332.75 25.24Q331.72 26.19 329.71 27.51Q326.78 29.39 325.1 31.12ZM322.04 51.11Q323.43 52.24 325.45 52.6Q327.6 52.98 329.37 52.31Q330.06 52.06 330.69 51.64Q331.83 50.88 332.51 49.82Q333.17 48.8 333.4 47.51Q333.67 45.96 333.26 44.62Q332.95 43.62 332.26 42.74Q331.9 42.26 331.46 41.87Q329.97 40.54 327.65 40.13Q325.31 39.72 323.46 40.49Q322.94 40.7 322.46 41.01Q321.55 41.58 320.94 42.39Q320.06 43.52 319.78 45.11Q319.55 46.4 319.82 47.58Q320.1 48.81 320.91 49.91Q321.41 50.59 322.04 51.11Z" fill="#FFFFFF" fill-opacity="1.000000" fill-rule="evenodd"/>
			<path id="?" d="M322.91 35.84Q323.44 32.83 325.1 31.12Q326.78 29.39 329.71 27.51Q331.72 26.19 332.75 25.24Q333.8 24.28 334.02 23.02Q334.33 21.28 333.04 19.96Q331.76 18.65 329.43 18.24Q327.03 17.82 324.88 18.62Q322.73 19.41 321.17 21.24L313.08 14.87Q316.28 11.11 321.19 9.56Q326.11 8.01 332.47 9.13Q339.59 10.39 343.42 14.13Q347.24 17.86 346.29 23.21Q345.86 25.65 344.67 27.39Q343.51 29.13 342.1 30.22Q340.72 31.31 338.57 32.59Q336.23 33.97 335.05 35.03Q333.86 36.09 333.58 37.72L322.91 35.84ZM325.45 52.6Q322.5 52.08 320.91 49.91Q319.32 47.74 319.78 45.11Q320.26 42.4 322.46 41.01Q324.65 39.6 327.65 40.13Q330.66 40.66 332.26 42.74Q333.88 44.8 333.4 47.51Q332.93 50.14 330.69 51.64Q328.45 53.13 325.45 52.6Z" stroke="#271A58" stroke-opacity="1.000000" stroke-width="0.511614"/>
			<rect id="Frame 2043683095" rx="18.775000" width="105.960831" height="141.447784" transform="translate(289.351562 -48.015137) rotate(10.000000)" stroke="#271A58" stroke-opacity="1.000000" stroke-width="0.500000"/>
			<rect id="Frame 2043683101" rx="18.775000" width="105.960831" height="141.447784" transform="translate(400.349609 -28.443359) rotate(10.000000)" fill="#009EE4" fill-opacity="1.000000"/>
			<path id="?" d="M436.76 51.29Q435.42 52.67 434.99 55.09L443.6 56.61Q443.74 55.84 444.13 55.22Q444.4 54.79 444.79 54.44Q445.74 53.59 447.63 52.47Q449.36 51.44 450.48 50.56Q451.61 49.68 452.56 48.28Q453.51 46.87 453.86 44.9Q454.25 42.67 453.62 40.79Q453.03 39.03 451.54 37.58Q448.46 34.56 442.71 33.55Q437.58 32.64 433.61 33.89Q431.11 34.68 429.16 36.18Q428.02 37.06 427.07 38.18L433.6 43.31Q434.45 42.31 435.53 41.7Q436.03 41.41 436.59 41.2Q437.07 41.02 437.57 40.92Q438.86 40.65 440.26 40.9Q442.14 41.23 443.17 42.29Q443.74 42.87 443.92 43.55Q444.07 44.12 443.96 44.75Q443.92 45 443.83 45.24Q443.57 45.96 442.94 46.54Q442.11 47.31 440.48 48.37Q438.12 49.89 436.76 51.29ZM434.3 67.41Q435.42 68.33 437.04 68.61Q438.78 68.92 440.21 68.38Q440.76 68.18 441.27 67.84Q442.19 67.22 442.74 66.37Q443.27 65.55 443.46 64.51Q443.68 63.26 443.35 62.18Q443.1 61.37 442.54 60.66Q442.25 60.28 441.9 59.96Q440.69 58.88 438.82 58.55Q436.93 58.22 435.44 58.84Q435.02 59.02 434.63 59.26Q433.9 59.73 433.4 60.37Q432.7 61.29 432.47 62.57Q432.29 63.61 432.51 64.57Q432.73 65.56 433.38 66.45Q433.79 67 434.3 67.41Z" fill="#FFFFFF" fill-opacity="1.000000" fill-rule="evenodd"/>
			<path id="?" d="M434.99 55.09Q435.42 52.67 436.76 51.29Q438.12 49.89 440.48 48.37Q442.11 47.31 442.94 46.54Q443.78 45.77 443.96 44.75Q444.21 43.35 443.17 42.29Q442.14 41.23 440.26 40.9Q438.32 40.55 436.59 41.2Q434.86 41.84 433.6 43.31L427.07 38.18Q429.65 35.14 433.61 33.89Q437.58 32.64 442.71 33.55Q448.46 34.56 451.54 37.58Q454.62 40.59 453.86 44.9Q453.51 46.87 452.56 48.28Q451.61 49.68 450.48 50.56Q449.36 51.44 447.63 52.47Q445.74 53.59 444.79 54.44Q443.83 55.3 443.6 56.61L434.99 55.09ZM437.04 68.61Q434.67 68.2 433.38 66.45Q432.1 64.7 432.47 62.57Q432.86 60.39 434.63 59.26Q436.4 58.13 438.82 58.55Q441.25 58.98 442.54 60.66Q443.84 62.32 443.46 64.51Q443.08 66.63 441.27 67.84Q439.46 69.04 437.04 68.61Z" stroke="#271A58" stroke-opacity="1.000000" stroke-width="0.511614"/>
			<rect id="Frame 2043683101" rx="18.775000" width="105.960831" height="141.447784" transform="translate(400.349609 -28.443359) rotate(10.000000)" stroke="#271A58" stroke-opacity="1.000000" stroke-width="0.500000"/>
			<rect id="Frame 2043683104" rx="18.775000" width="105.960831" height="141.447784" transform="translate(-69.356445 39.106445) rotate(10.000000)" fill="#1FA46C" fill-opacity="1.000000"/>
			<path id="?" d="M-32.94 118.84Q-34.28 120.22 -34.71 122.64L-26.1 124.16Q-25.97 123.39 -25.58 122.77Q-25.31 122.34 -24.92 121.99Q-23.96 121.14 -22.07 120.02Q-20.34 118.99 -19.23 118.11Q-18.09 117.23 -17.15 115.83Q-16.2 114.42 -15.85 112.45Q-15.45 110.23 -16.09 108.34Q-16.68 106.58 -18.17 105.13Q-21.25 102.11 -27 101.1Q-32.13 100.19 -36.1 101.44Q-38.59 102.23 -40.54 103.73Q-41.69 104.61 -42.64 105.73L-36.11 110.86Q-35.25 109.86 -34.18 109.25Q-33.67 108.96 -33.12 108.75Q-32.63 108.57 -32.14 108.47Q-30.84 108.2 -29.45 108.45Q-27.57 108.78 -26.54 109.84Q-25.97 110.42 -25.78 111.1Q-25.63 111.67 -25.75 112.3Q-25.79 112.55 -25.88 112.79Q-26.13 113.51 -26.77 114.09Q-27.6 114.86 -29.22 115.92Q-31.59 117.44 -32.94 118.84ZM-35.41 134.96Q-34.29 135.88 -32.66 136.16Q-30.92 136.47 -29.5 135.94Q-28.94 135.73 -28.43 135.39Q-27.51 134.77 -26.96 133.92Q-26.43 133.1 -26.25 132.06Q-26.03 130.81 -26.36 129.73Q-26.61 128.92 -27.16 128.21Q-27.46 127.83 -27.81 127.51Q-29.01 126.43 -30.88 126.1Q-32.77 125.77 -34.27 126.39Q-34.69 126.57 -35.07 126.81Q-35.81 127.28 -36.3 127.92Q-37 128.84 -37.23 130.12Q-37.42 131.17 -37.2 132.12Q-36.98 133.11 -36.32 134Q-35.92 134.55 -35.41 134.96Z" fill="#FFFFFF" fill-opacity="1.000000" fill-rule="evenodd"/>
			<path id="?" d="M-34.71 122.64Q-34.28 120.22 -32.94 118.84Q-31.59 117.44 -29.22 115.92Q-27.6 114.86 -26.77 114.09Q-25.93 113.32 -25.75 112.3Q-25.5 110.9 -26.54 109.84Q-27.57 108.78 -29.45 108.45Q-31.38 108.1 -33.12 108.75Q-34.85 109.39 -36.11 110.86L-42.64 105.73Q-40.06 102.69 -36.1 101.44Q-32.13 100.19 -27 101.1Q-21.25 102.11 -18.17 105.13Q-15.08 108.14 -15.85 112.45Q-16.2 114.42 -17.15 115.83Q-18.09 117.23 -19.23 118.11Q-20.34 118.99 -22.07 120.02Q-23.96 121.14 -24.92 121.99Q-25.87 122.85 -26.1 124.16L-34.71 122.64ZM-32.66 136.16Q-35.04 135.75 -36.32 134Q-37.61 132.25 -37.23 130.12Q-36.84 127.94 -35.07 126.81Q-33.3 125.68 -30.88 126.1Q-28.46 126.53 -27.16 128.21Q-25.86 129.87 -26.25 132.06Q-26.63 134.18 -28.43 135.39Q-30.24 136.59 -32.66 136.16Z" stroke="#271A58" stroke-opacity="1.000000" stroke-width="0.511614"/>
			<rect id="Frame 2043683104" rx="18.775000" width="105.960831" height="141.447784" transform="translate(-69.356445 39.106445) rotate(10.000000)" stroke="#271A58" stroke-opacity="1.000000" stroke-width="0.500000"/>
			<rect id="Frame 2043683096" rx="18.775000" width="105.960831" height="141.447784" transform="translate(41.640625 58.678345) rotate(10.000000)" fill="#F25050" fill-opacity="1.000000"/>
			<path id="?" d="M77.39 137.81Q75.73 139.53 75.19 142.53L85.86 144.41Q86.03 143.45 86.52 142.69Q86.85 142.16 87.34 141.73Q88.52 140.67 90.86 139.28Q93.01 138 94.39 136.92Q95.79 135.82 96.96 134.08Q98.15 132.34 98.58 129.9Q99.07 127.14 98.28 124.81Q97.55 122.63 95.7 120.82Q91.88 117.08 84.75 115.83Q78.4 114.71 73.48 116.25Q70.38 117.23 67.97 119.09Q66.55 120.18 65.37 121.57L73.46 127.93Q74.52 126.69 75.86 125.93Q76.48 125.57 77.17 125.31Q77.77 125.09 78.39 124.96Q79.99 124.63 81.72 124.93Q84.05 125.35 85.33 126.66Q86.04 127.38 86.26 128.23Q86.45 128.93 86.31 129.71Q86.25 130.03 86.15 130.32Q85.83 131.21 85.04 131.93Q84.01 132.88 82 134.2Q79.07 136.09 77.39 137.81ZM74.33 157.81Q75.72 158.94 77.73 159.29Q79.89 159.67 81.66 159.01Q82.35 158.75 82.98 158.33Q84.12 157.57 84.8 156.51Q85.46 155.5 85.68 154.2Q85.96 152.65 85.55 151.31Q85.24 150.31 84.55 149.43Q84.19 148.96 83.75 148.57Q82.26 147.23 79.94 146.82Q77.6 146.41 75.74 147.18Q75.23 147.39 74.75 147.7Q73.84 148.28 73.22 149.08Q72.35 150.22 72.07 151.8Q71.84 153.1 72.11 154.28Q72.39 155.5 73.2 156.61Q73.7 157.29 74.33 157.81Z" fill="#FFFFFF" fill-opacity="1.000000" fill-rule="evenodd"/>
			<path id="?" d="M75.19 142.53Q75.73 139.53 77.39 137.81Q79.07 136.09 82 134.2Q84.01 132.88 85.04 131.93Q86.09 130.97 86.31 129.71Q86.62 127.97 85.33 126.66Q84.05 125.35 81.72 124.93Q79.32 124.51 77.17 125.31Q75.02 126.11 73.46 127.93L65.37 121.57Q68.57 117.8 73.48 116.25Q78.4 114.71 84.75 115.83Q91.88 117.08 95.7 120.82Q99.52 124.56 98.58 129.9Q98.15 132.34 96.96 134.08Q95.79 135.82 94.39 136.92Q93.01 138 90.86 139.28Q88.52 140.67 87.34 141.73Q86.15 142.78 85.86 144.41L75.19 142.53ZM77.73 159.29Q74.79 158.77 73.2 156.61Q71.61 154.44 72.07 151.8Q72.55 149.1 74.75 147.7Q76.94 146.29 79.94 146.82Q82.94 147.35 84.55 149.43Q86.16 151.5 85.68 154.2Q85.22 156.84 82.98 158.33Q80.74 159.82 77.73 159.29Z" stroke="#271A58" stroke-opacity="1.000000" stroke-width="0.511614"/>
			<rect id="Frame 2043683096" rx="18.775000" width="105.960831" height="141.447784" transform="translate(41.640625 58.678345) rotate(10.000000)" stroke="#271A58" stroke-opacity="1.000000" stroke-width="0.500000"/>
			<rect id="Frame 2043683112" rx="18.775000" width="105.960831" height="141.447784" transform="translate(152.638672 78.250366) rotate(10.000000)" fill="#009EE4" fill-opacity="1.000000"/>
			<path id="?" d="M189.05 157.98Q187.71 159.36 187.28 161.78L195.89 163.3Q196.03 162.53 196.42 161.92Q196.69 161.49 197.08 161.14Q198.03 160.28 199.92 159.17Q201.65 158.13 202.77 157.26Q203.9 156.37 204.85 154.97Q205.8 153.57 206.15 151.6Q206.54 149.37 205.91 147.49Q205.32 145.73 203.83 144.27Q200.75 141.25 195 140.24Q189.87 139.34 185.9 140.59Q183.4 141.37 181.45 142.87Q180.31 143.75 179.36 144.87L185.89 150.01Q186.74 149.01 187.82 148.39Q188.32 148.1 188.88 147.89Q189.36 147.71 189.86 147.61Q191.15 147.34 192.55 147.59Q194.43 147.92 195.46 148.98Q196.03 149.56 196.21 150.25Q196.36 150.81 196.25 151.45Q196.21 151.7 196.12 151.93Q195.86 152.65 195.23 153.24Q194.4 154 192.77 155.07Q190.41 156.59 189.05 157.98ZM186.59 174.11Q187.71 175.02 189.33 175.31Q191.07 175.61 192.5 175.08Q193.05 174.87 193.56 174.53Q194.48 173.92 195.03 173.07Q195.56 172.25 195.75 171.2Q195.97 169.95 195.64 168.87Q195.39 168.07 194.83 167.35Q194.54 166.97 194.19 166.65Q192.99 165.58 191.11 165.25Q189.22 164.91 187.73 165.54Q187.31 165.71 186.92 165.96Q186.19 166.42 185.69 167.07Q184.99 167.99 184.76 169.27Q184.58 170.31 184.8 171.26Q185.02 172.25 185.67 173.14Q186.08 173.69 186.59 174.11Z" fill="#FFFFFF" fill-opacity="1.000000" fill-rule="evenodd"/>
			<path id="?" d="M187.28 161.78Q187.71 159.36 189.05 157.98Q190.41 156.59 192.77 155.07Q194.4 154 195.23 153.24Q196.07 152.46 196.25 151.45Q196.5 150.04 195.46 148.98Q194.43 147.92 192.55 147.59Q190.61 147.25 188.88 147.89Q187.15 148.54 185.89 150.01L179.36 144.87Q181.94 141.84 185.9 140.59Q189.87 139.34 195 140.24Q200.75 141.25 203.83 144.27Q206.91 147.28 206.15 151.6Q205.8 153.57 204.85 154.97Q203.9 156.37 202.77 157.26Q201.65 158.13 199.92 159.17Q198.03 160.28 197.08 161.14Q196.12 161.99 195.89 163.3L187.28 161.78ZM189.33 175.31Q186.96 174.89 185.67 173.14Q184.39 171.39 184.76 169.27Q185.15 167.08 186.92 165.96Q188.69 164.82 191.11 165.25Q193.54 165.68 194.83 167.35Q196.13 169.02 195.75 171.2Q195.37 173.33 193.56 174.53Q191.75 175.73 189.33 175.31Z" stroke="#271A58" stroke-opacity="1.000000" stroke-width="0.511614"/>
			<rect id="Frame 2043683112" rx="18.775000" width="105.960831" height="141.447784" transform="translate(152.638672 78.250366) rotate(10.000000)" stroke="#271A58" stroke-opacity="1.000000" stroke-width="0.500000"/>
			<rect id="Frame 2043683098" rx="18.775000" width="105.960831" height="141.447784" transform="translate(263.636719 97.822144) rotate(10.000000)" fill="#99D100" fill-opacity="1.000000"/>
			<path id="?" d="M299.38 176.96Q297.72 178.67 297.19 181.67L307.86 183.55Q308.03 182.6 308.51 181.84Q308.85 181.31 309.33 180.87Q310.52 179.81 312.86 178.43Q315 177.15 316.39 176.06Q317.79 174.97 318.96 173.23Q320.14 171.49 320.57 169.04Q321.06 166.28 320.28 163.95Q319.55 161.77 317.7 159.96Q313.88 156.23 306.75 154.97Q300.4 153.85 295.48 155.39Q292.38 156.37 289.96 158.23Q288.55 159.32 287.36 160.71L295.46 167.07Q296.52 165.84 297.85 165.07Q298.48 164.71 299.17 164.45Q299.77 164.23 300.38 164.1Q301.99 163.77 303.72 164.08Q306.04 164.49 307.32 165.8Q308.03 166.52 308.26 167.37Q308.45 168.07 308.31 168.86Q308.25 169.17 308.14 169.46Q307.82 170.35 307.04 171.08Q306.01 172.03 303.99 173.35Q301.06 175.23 299.38 176.96ZM296.33 196.95Q297.71 198.08 299.73 198.44Q301.89 198.82 303.65 198.15Q304.34 197.89 304.97 197.47Q306.12 196.71 306.8 195.66Q307.45 194.64 307.68 193.35Q307.96 191.8 307.54 190.46Q307.24 189.46 306.55 188.58Q306.18 188.1 305.75 187.71Q304.26 186.38 301.94 185.97Q299.59 185.55 297.74 186.32Q297.22 186.54 296.74 186.85Q295.84 187.42 295.22 188.22Q294.35 189.36 294.07 190.95Q293.84 192.24 294.11 193.42Q294.38 194.64 295.2 195.75Q295.7 196.43 296.33 196.95Z" fill="#FFFFFF" fill-opacity="1.000000" fill-rule="evenodd"/>
			<path id="?" d="M297.19 181.67Q297.72 178.67 299.38 176.96Q301.06 175.23 303.99 173.35Q306.01 172.03 307.04 171.08Q308.08 170.12 308.31 168.86Q308.61 167.12 307.32 165.8Q306.04 164.49 303.72 164.08Q301.32 163.66 299.17 164.45Q297.02 165.25 295.46 167.07L287.36 160.71Q290.57 156.95 295.48 155.39Q300.4 153.85 306.75 154.97Q313.88 156.23 317.7 159.96Q321.52 163.7 320.57 169.04Q320.14 171.49 318.96 173.23Q317.79 174.97 316.39 176.06Q315 177.15 312.86 178.43Q310.52 179.81 309.33 180.87Q308.15 181.93 307.86 183.55L297.19 181.67ZM299.73 198.44Q296.79 197.92 295.2 195.75Q293.6 193.58 294.07 190.95Q294.55 188.24 296.74 186.85Q298.94 185.44 301.94 185.97Q304.94 186.5 306.55 188.58Q308.16 190.64 307.68 193.35Q307.21 195.98 304.97 197.47Q302.73 198.96 299.73 198.44Z" stroke="#271A58" stroke-opacity="1.000000" stroke-width="0.511614"/>
			<rect id="Frame 2043683098" rx="18.775000" width="105.960831" height="141.447784" transform="translate(263.636719 97.822144) rotate(10.000000)" stroke="#271A58" stroke-opacity="1.000000" stroke-width="0.500000"/>
			<rect id="Frame 2043683102" rx="18.775000" width="105.960831" height="141.447784" transform="translate(374.634766 117.394043) rotate(10.000000)" fill="#FFC700" fill-opacity="1.000000"/>
			<path id="?" d="M411.05 197.12Q409.71 198.51 409.28 200.93L417.89 202.45Q418.02 201.67 418.41 201.06Q418.68 200.63 419.07 200.28Q420.03 199.43 421.92 198.31Q423.65 197.28 424.77 196.4Q425.9 195.52 426.84 194.11Q427.79 192.71 428.14 190.74Q428.54 188.51 427.91 186.63Q427.31 184.87 425.82 183.41Q422.74 180.4 416.99 179.38Q411.87 178.48 407.89 179.73Q405.4 180.52 403.45 182.02Q402.31 182.9 401.35 184.02L407.88 189.15Q408.74 188.15 409.81 187.53Q410.32 187.24 410.87 187.04Q411.36 186.86 411.86 186.75Q413.15 186.49 414.54 186.73Q416.42 187.07 417.45 188.12Q418.03 188.71 418.21 189.39Q418.36 189.96 418.25 190.59Q418.2 190.84 418.12 191.08Q417.86 191.8 417.22 192.38Q416.39 193.15 414.77 194.21Q412.4 195.73 411.05 197.12ZM408.59 213.25Q409.7 214.16 411.33 214.45Q413.07 214.76 414.49 214.22Q415.05 214.01 415.56 213.68Q416.48 213.06 417.03 212.21Q417.56 211.39 417.74 210.35Q417.96 209.1 417.63 208.02Q417.38 207.21 416.83 206.5Q416.53 206.11 416.18 205.8Q414.98 204.72 413.11 204.39Q411.22 204.06 409.72 204.68Q409.3 204.85 408.92 205.1Q408.19 205.57 407.69 206.21Q406.99 207.13 406.76 208.41Q406.58 209.45 406.79 210.4Q407.01 211.39 407.67 212.28Q408.07 212.83 408.59 213.25Z" fill="#FFFFFF" fill-opacity="1.000000" fill-rule="evenodd"/>
			<path id="?" d="M409.28 200.93Q409.71 198.51 411.05 197.12Q412.4 195.73 414.77 194.21Q416.39 193.15 417.22 192.38Q418.07 191.6 418.25 190.59Q418.49 189.18 417.45 188.12Q416.42 187.07 414.54 186.73Q412.61 186.39 410.87 187.04Q409.14 187.68 407.88 189.15L401.35 184.02Q403.93 180.98 407.89 179.73Q411.87 178.48 416.99 179.38Q422.74 180.4 425.82 183.41Q428.91 186.43 428.14 190.74Q427.79 192.71 426.84 194.11Q425.9 195.52 424.77 196.4Q423.65 197.28 421.92 198.31Q420.03 199.43 419.07 200.28Q418.12 201.14 417.89 202.45L409.28 200.93ZM411.33 214.45Q408.95 214.03 407.67 212.28Q406.38 210.54 406.76 208.41Q407.15 206.23 408.92 205.1Q410.69 203.96 413.11 204.39Q415.53 204.82 416.83 206.5Q418.13 208.16 417.74 210.35Q417.37 212.47 415.56 213.68Q413.75 214.88 411.33 214.45Z" stroke="#271A58" stroke-opacity="1.000000" stroke-width="0.511614"/>
			<rect id="Frame 2043683102" rx="18.775000" width="105.960831" height="141.447784" transform="translate(374.634766 117.394043) rotate(10.000000)" stroke="#271A58" stroke-opacity="1.000000" stroke-width="0.500000"/>
			<rect id="Frame 2043683109" rx="18.775000" width="105.960831" height="141.447784" transform="translate(-95.071289 184.943848) rotate(10.000000)" fill="#009EE4" fill-opacity="1.000000"/>
			<path id="?" d="M-58.66 264.67Q-60 266.06 -60.43 268.48L-51.82 270Q-51.68 269.22 -51.29 268.61Q-51.02 268.18 -50.63 267.83Q-49.68 266.98 -47.79 265.86Q-46.06 264.83 -44.94 263.95Q-43.81 263.07 -42.87 261.66Q-41.91 260.26 -41.56 258.29Q-41.17 256.06 -41.8 254.18Q-42.39 252.42 -43.88 250.96Q-46.96 247.95 -52.72 246.93Q-57.84 246.03 -61.81 247.28Q-64.31 248.07 -66.26 249.57Q-67.4 250.44 -68.36 251.57L-61.82 256.7Q-60.97 255.7 -59.89 255.08Q-59.39 254.79 -58.83 254.59Q-58.35 254.41 -57.85 254.3Q-56.56 254.04 -55.16 254.28Q-53.28 254.61 -52.25 255.67Q-51.68 256.26 -51.5 256.94Q-51.35 257.51 -51.46 258.14Q-51.51 258.39 -51.59 258.63Q-51.85 259.35 -52.48 259.93Q-53.31 260.7 -54.94 261.76Q-57.3 263.28 -58.66 264.67ZM-61.12 280.8Q-60.01 281.71 -58.38 282Q-56.64 282.31 -55.21 281.77Q-54.66 281.56 -54.15 281.22Q-53.23 280.61 -52.68 279.76Q-52.15 278.94 -51.96 277.9Q-51.74 276.65 -52.07 275.57Q-52.32 274.76 -52.88 274.05Q-53.17 273.66 -53.53 273.35Q-54.73 272.27 -56.6 271.94Q-58.49 271.61 -59.98 272.23Q-60.4 272.4 -60.79 272.65Q-61.52 273.12 -62.02 273.76Q-62.72 274.68 -62.95 275.96Q-63.13 277 -62.92 277.95Q-62.69 278.94 -62.04 279.83Q-61.63 280.38 -61.12 280.8Z" fill="#FFFFFF" fill-opacity="1.000000" fill-rule="evenodd"/>
			<path id="?" d="M-60.43 268.48Q-60 266.06 -58.66 264.67Q-57.3 263.28 -54.94 261.76Q-53.31 260.7 -52.48 259.93Q-51.64 259.15 -51.46 258.14Q-51.21 256.73 -52.25 255.67Q-53.28 254.61 -55.16 254.28Q-57.1 253.94 -58.83 254.59Q-60.57 255.23 -61.82 256.7L-68.36 251.57Q-65.77 248.53 -61.81 247.28Q-57.84 246.03 -52.72 246.93Q-46.96 247.95 -43.88 250.96Q-40.8 253.98 -41.56 258.29Q-41.91 260.26 -42.87 261.66Q-43.81 263.07 -44.94 263.95Q-46.06 264.83 -47.79 265.86Q-49.68 266.98 -50.63 267.83Q-51.59 268.69 -51.82 270L-60.43 268.48ZM-58.38 282Q-60.75 281.58 -62.04 279.83Q-63.32 278.09 -62.95 275.96Q-62.56 273.78 -60.79 272.65Q-59.02 271.51 -56.6 271.94Q-54.18 272.37 -52.88 274.05Q-51.58 275.71 -51.96 277.9Q-52.34 280.02 -54.15 281.22Q-55.96 282.43 -58.38 282Z" stroke="#271A58" stroke-opacity="1.000000" stroke-width="0.511614"/>
			<rect id="Frame 2043683109" rx="18.775000" width="105.960831" height="141.447784" transform="translate(-95.071289 184.943848) rotate(10.000000)" stroke="#271A58" stroke-opacity="1.000000" stroke-width="0.500000"/>
			<rect id="Frame 2043683105" rx="18.775000" width="105.960831" height="141.447784" transform="translate(15.925781 204.515625) rotate(10.000000)" fill="#99D100" fill-opacity="1.000000"/>
			<path id="?" d="M51.67 283.65Q50.01 285.37 49.48 288.37L60.15 290.25Q60.32 289.29 60.8 288.53Q61.14 288 61.62 287.56Q62.81 286.51 65.15 285.12Q67.29 283.84 68.68 282.76Q70.08 281.66 71.25 279.92Q72.43 278.18 72.86 275.74Q73.35 272.98 72.57 270.65Q71.84 268.46 69.99 266.66Q66.17 262.92 59.04 261.66Q52.69 260.54 47.76 262.09Q44.67 263.07 42.25 264.92Q40.84 266.01 39.65 267.41L47.75 273.77Q48.81 272.53 50.14 271.76Q50.77 271.4 51.46 271.15Q52.06 270.93 52.67 270.8Q54.27 270.47 56.01 270.77Q58.33 271.18 59.61 272.49Q60.32 273.22 60.55 274.07Q60.73 274.76 60.59 275.55Q60.54 275.86 60.43 276.16Q60.11 277.05 59.33 277.77Q58.3 278.72 56.28 280.04Q53.35 281.93 51.67 283.65ZM48.62 303.64Q50 304.77 52.02 305.13Q54.18 305.51 55.94 304.85Q56.63 304.59 57.26 304.17Q58.4 303.41 59.09 302.35Q59.74 301.33 59.97 300.04Q60.24 298.49 59.83 297.15Q59.53 296.15 58.84 295.27Q58.47 294.79 58.03 294.4Q56.55 293.07 54.23 292.66Q51.88 292.25 50.03 293.02Q49.51 293.23 49.03 293.54Q48.12 294.12 47.51 294.92Q46.64 296.05 46.36 297.64Q46.13 298.93 46.4 300.11Q46.67 301.34 47.48 302.44Q47.99 303.12 48.62 303.64Z" fill="#FFFFFF" fill-opacity="1.000000" fill-rule="evenodd"/>
			<path id="?" d="M49.48 288.37Q50.01 285.37 51.67 283.65Q53.35 281.93 56.28 280.04Q58.3 278.72 59.33 277.77Q60.37 276.81 60.59 275.55Q60.9 273.81 59.61 272.49Q58.33 271.18 56.01 270.77Q53.61 270.35 51.46 271.15Q49.31 271.95 47.75 273.77L39.65 267.41Q42.86 263.64 47.76 262.09Q52.69 260.54 59.04 261.66Q66.17 262.92 69.99 266.66Q73.81 270.39 72.86 275.74Q72.43 278.18 71.25 279.92Q70.08 281.66 68.68 282.76Q67.29 283.84 65.15 285.12Q62.81 286.51 61.62 287.56Q60.44 288.62 60.15 290.25L49.48 288.37ZM52.02 305.13Q49.08 304.61 47.48 302.44Q45.89 300.28 46.36 297.64Q46.84 294.93 49.03 293.54Q51.23 292.13 54.23 292.66Q57.23 293.19 58.84 295.27Q60.45 297.33 59.97 300.04Q59.5 302.68 57.26 304.17Q55.02 305.66 52.02 305.13Z" stroke="#271A58" stroke-opacity="1.000000" stroke-width="0.511614"/>
			<rect id="Frame 2043683105" rx="18.775000" width="105.960831" height="141.447784" transform="translate(15.925781 204.515625) rotate(10.000000)" stroke="#271A58" stroke-opacity="1.000000" stroke-width="0.500000"/>
			<rect id="Frame 2043683106" rx="18.775000" width="105.960831" height="141.447784" transform="translate(126.923828 224.087646) rotate(10.000000)" fill="#009EE4" fill-opacity="1.000000"/>
			<path id="?" d="M162.67 303.22Q161.01 304.94 160.48 307.94L171.15 309.82Q171.32 308.86 171.8 308.1Q172.13 307.57 172.62 307.14Q173.8 306.08 176.15 304.69Q178.29 303.41 179.68 302.33Q181.08 301.23 182.25 299.49Q183.43 297.75 183.86 295.31Q184.35 292.55 183.57 290.22Q182.83 288.04 180.99 286.23Q177.17 282.49 170.04 281.23Q163.69 280.11 158.76 281.66Q155.67 282.64 153.25 284.5Q151.83 285.59 150.65 286.98L158.75 293.34Q159.81 292.1 161.14 291.34Q161.77 290.98 162.46 290.72Q163.05 290.5 163.67 290.37Q165.27 290.04 167.01 290.34Q169.33 290.75 170.61 292.07Q171.32 292.79 171.55 293.64Q171.73 294.34 171.59 295.12Q171.54 295.44 171.43 295.73Q171.11 296.62 170.32 297.34Q169.3 298.29 167.28 299.61Q164.35 301.5 162.67 303.22ZM159.62 323.22Q161 324.35 163.02 324.7Q165.18 325.08 166.94 324.42Q167.63 324.16 168.26 323.74Q169.4 322.98 170.08 321.92Q170.74 320.91 170.97 319.61Q171.24 318.06 170.83 316.72Q170.53 315.72 169.84 314.84Q169.47 314.37 169.03 313.97Q167.54 312.64 165.23 312.23Q162.88 311.82 161.03 312.59Q160.51 312.8 160.03 313.11Q159.12 313.69 158.51 314.49Q157.64 315.62 157.36 317.21Q157.13 318.51 157.39 319.68Q157.67 320.91 158.48 322.01Q158.98 322.7 159.62 323.22Z" fill="#FFFFFF" fill-opacity="1.000000" fill-rule="evenodd"/>
			<path id="?" d="M160.48 307.94Q161.01 304.94 162.67 303.22Q164.35 301.5 167.28 299.61Q169.3 298.29 170.32 297.34Q171.37 296.38 171.59 295.12Q171.9 293.38 170.61 292.07Q169.33 290.75 167.01 290.34Q164.6 289.92 162.46 290.72Q160.31 291.52 158.75 293.34L150.65 286.98Q153.85 283.21 158.76 281.66Q163.69 280.11 170.04 281.23Q177.17 282.49 180.99 286.23Q184.81 289.97 183.86 295.31Q183.43 297.75 182.25 299.49Q181.08 301.23 179.68 302.33Q178.29 303.41 176.15 304.69Q173.8 306.08 172.62 307.14Q171.44 308.2 171.15 309.82L160.48 307.94ZM163.02 324.7Q160.08 324.18 158.48 322.01Q156.89 319.85 157.36 317.21Q157.84 314.51 160.03 313.11Q162.23 311.7 165.23 312.23Q168.23 312.76 169.84 314.84Q171.45 316.91 170.97 319.61Q170.5 322.25 168.26 323.74Q166.02 325.23 163.02 324.7Z" stroke="#271A58" stroke-opacity="1.000000" stroke-width="0.511614"/>
			<rect id="Frame 2043683106" rx="18.775000" width="105.960831" height="141.447784" transform="translate(126.923828 224.087646) rotate(10.000000)" stroke="#271A58" stroke-opacity="1.000000" stroke-width="0.500000"/>
			<rect id="Frame 2043683107" rx="18.775000" width="105.960831" height="141.447784" transform="translate(237.921875 243.659424) rotate(10.000000)" fill="#AD61FF" fill-opacity="1.000000"/>
			<path id="?" d="M274.34 323.39Q272.99 324.77 272.57 327.19L281.17 328.71Q281.31 327.94 281.7 327.32Q281.97 326.9 282.36 326.55Q283.32 325.69 285.21 324.58Q286.94 323.54 288.05 322.67Q289.18 321.78 290.13 320.38Q291.08 318.98 291.43 317Q291.82 314.78 291.19 312.9Q290.6 311.14 289.11 309.68Q286.03 306.66 280.28 305.65Q275.15 304.75 271.18 305.99Q268.68 306.78 266.73 308.28Q265.59 309.16 264.64 310.28L271.17 315.42Q272.02 314.42 273.1 313.8Q273.61 313.51 274.16 313.3Q274.64 313.12 275.14 313.02Q276.43 312.75 277.83 313Q279.71 313.33 280.74 314.39Q281.31 314.97 281.5 315.66Q281.65 316.22 281.53 316.85Q281.49 317.11 281.4 317.34Q281.14 318.06 280.51 318.65Q279.68 319.41 278.05 320.48Q275.69 322 274.34 323.39ZM271.87 339.52Q272.99 340.43 274.62 340.72Q276.35 341.02 277.78 340.49Q278.34 340.28 278.84 339.94Q279.76 339.33 280.32 338.48Q280.84 337.65 281.03 336.61Q281.25 335.36 280.92 334.28Q280.67 333.47 280.12 332.76Q279.82 332.38 279.47 332.06Q278.27 330.99 276.4 330.66Q274.51 330.32 273.01 330.94Q272.59 331.12 272.2 331.37Q271.47 331.83 270.98 332.48Q270.27 333.39 270.05 334.68Q269.86 335.72 270.08 336.67Q270.3 337.66 270.96 338.55Q271.36 339.1 271.87 339.52Z" fill="#FFFFFF" fill-opacity="1.000000" fill-rule="evenodd"/>
			<path id="?" d="M272.57 327.19Q272.99 324.77 274.34 323.39Q275.69 322 278.05 320.48Q279.68 319.41 280.51 318.65Q281.35 317.87 281.53 316.85Q281.78 315.45 280.74 314.39Q279.71 313.33 277.83 313Q275.9 312.66 274.16 313.3Q272.43 313.95 271.17 315.42L264.64 310.28Q267.22 307.24 271.18 305.99Q275.15 304.75 280.28 305.65Q286.03 306.66 289.11 309.68Q292.19 312.69 291.43 317Q291.08 318.98 290.13 320.38Q289.18 321.78 288.05 322.67Q286.94 323.54 285.21 324.58Q283.32 325.69 282.36 326.55Q281.41 327.4 281.17 328.71L272.57 327.19ZM274.62 340.72Q272.24 340.3 270.96 338.55Q269.67 336.8 270.05 334.68Q270.43 332.49 272.2 331.37Q273.98 330.23 276.4 330.66Q278.82 331.08 280.12 332.76Q281.42 334.43 281.03 336.61Q280.65 338.74 278.84 339.94Q277.04 341.14 274.62 340.72Z" stroke="#271A58" stroke-opacity="1.000000" stroke-width="0.511614"/>
			<rect id="Frame 2043683107" rx="18.775000" width="105.960831" height="141.447784" transform="translate(237.921875 243.659424) rotate(10.000000)" stroke="#271A58" stroke-opacity="1.000000" stroke-width="0.500000"/>
			<rect id="Frame 2043683108" rx="18.775000" width="105.960831" height="141.447784" transform="translate(348.918945 263.231445) rotate(10.000000)" fill="#565EEF" fill-opacity="1.000000"/>
			<path id="?" d="M385.33 342.96Q383.99 344.34 383.56 346.77L392.17 348.28Q392.31 347.51 392.7 346.9Q392.97 346.47 393.36 346.12Q394.31 345.26 396.21 344.15Q397.93 343.11 399.05 342.24Q400.18 341.36 401.13 339.95Q402.08 338.55 402.43 336.58Q402.82 334.35 402.19 332.47Q401.6 330.71 400.11 329.25Q397.03 326.24 391.28 325.22Q386.15 324.32 382.18 325.57Q379.68 326.35 377.73 327.85Q376.59 328.73 375.64 329.86L382.17 334.99Q383.02 333.99 384.1 333.37Q384.6 333.08 385.16 332.87Q385.64 332.69 386.14 332.59Q387.43 332.32 388.83 332.57Q390.71 332.9 391.74 333.96Q392.31 334.54 392.49 335.23Q392.64 335.79 392.53 336.43Q392.49 336.68 392.4 336.92Q392.14 337.63 391.51 338.22Q390.68 338.99 389.05 340.05Q386.69 341.57 385.33 342.96ZM382.87 359.09Q383.99 360 385.61 360.29Q387.35 360.6 388.78 360.06Q389.33 359.85 389.84 359.51Q390.76 358.9 391.31 358.05Q391.84 357.23 392.03 356.18Q392.25 354.93 391.92 353.85Q391.67 353.05 391.11 352.33Q390.82 351.95 390.47 351.64Q389.27 350.56 387.4 350.23Q385.5 349.9 384.01 350.52Q383.59 350.69 383.2 350.94Q382.47 351.4 381.98 352.05Q381.27 352.97 381.05 354.25Q380.86 355.29 381.08 356.24Q381.3 357.23 381.95 358.12Q382.36 358.67 382.87 359.09Z" fill="#FFFFFF" fill-opacity="1.000000" fill-rule="evenodd"/>
			<path id="?" d="M383.56 346.77Q383.99 344.34 385.33 342.96Q386.69 341.57 389.05 340.05Q390.68 338.99 391.51 338.22Q392.35 337.44 392.53 336.43Q392.78 335.02 391.74 333.96Q390.71 332.9 388.83 332.57Q386.89 332.23 385.16 332.87Q383.43 333.52 382.17 334.99L375.64 329.86Q378.22 326.82 382.18 325.57Q386.15 324.32 391.28 325.22Q397.03 326.24 400.11 329.25Q403.19 332.27 402.43 336.58Q402.08 338.55 401.13 339.95Q400.18 341.36 399.05 342.24Q397.93 343.11 396.21 344.15Q394.31 345.26 393.36 346.12Q392.4 346.97 392.17 348.28L383.56 346.77ZM385.61 360.29Q383.24 359.87 381.95 358.12Q380.67 356.37 381.05 354.25Q381.43 352.06 383.2 350.94Q384.97 349.8 387.4 350.23Q389.82 350.66 391.11 352.33Q392.41 354 392.03 356.18Q391.65 358.31 389.84 359.51Q388.03 360.72 385.61 360.29Z" stroke="#271A58" stroke-opacity="1.000000" stroke-width="0.511614"/>
			<rect id="Frame 2043683108" rx="18.775000" width="105.960831" height="141.447784" transform="translate(348.918945 263.231445) rotate(10.000000)" stroke="#271A58" stroke-opacity="1.000000" stroke-width="0.500000"/>
			<g filter="url(#filter_14_3948_dd)">
				<g filter="url(#filter_14_3949_dd)">
					<rect id="Frame 2043683065" rx="19.275000" width="138.632965" height="184.677322" transform="translate(140.288086 54.127441) rotate(9.999999)" fill="#FFC700" fill-opacity="1.000000"/>
					<rect id="Frame 2043683065" rx="19.275000" width="138.632965" height="184.677322" transform="translate(140.288086 54.127441) rotate(9.999999)" stroke="#271A58" stroke-opacity="1.000000" stroke-width="0.500000"/>
					<rect id="Frame 2043683065" rx="19.275000" width="138.632965" height="184.677322" transform="translate(140.288086 54.127441) rotate(9.999999)" stroke="#000000" stroke-opacity="0.200000" stroke-width="0.500000"/>
				</g>
				<path id="✊" d="" stroke="#271A58" stroke-opacity="1.000000" stroke-width="0.634167"/>
			</g>
		</g>
	</g>
</svg>
