<svg width="45.000000" height="45.000000" viewBox="0 0 45 45" fill="none" xmlns="http://www.w3.org/2000/svg" xmlns:xlink="http://www.w3.org/1999/xlink">
	<desc>
			Created with Pixso.
	</desc>
	<defs>
		<filter id="filter_22_2222_dd" x="0.000000" y="0.000000" width="45.000000" height="45.000000" filterUnits="userSpaceOnUse" color-interpolation-filters="sRGB">
			<feFlood flood-opacity="0" result="BackgroundImageFix"/>
			<feColorMatrix in="SourceAlpha" type="matrix" values="0 0 0 0 0 0 0 0 0 0 0 0 0 0 0 0 0 0 127 0" result="hardAlpha"/>
			<feOffset dx="0" dy="4"/>
			<feGaussianBlur stdDeviation="1.33333"/>
			<feComposite in2="hardAlpha" operator="out" k2="-1" k3="1"/>
			<feColorMatrix type="matrix" values="0 0 0 0 0 0 0 0 0 0 0 0 0 0 0 0 0 0 0.25 0"/>
			<feBlend mode="normal" in2="BackgroundImageFix" result="effect_dropShadow_1"/>
			<feBlend mode="normal" in="SourceGraphic" in2="effect_dropShadow_1" result="shape"/>
		</filter>
	</defs>
	<g filter="url(#filter_22_2222_dd)">
		<path id="Star 5" d="M22.5 0L17.5 13.5L4 18.5L17.5 23.49L22.5 37L27.49 23.49L41 18.5L27.49 13.5L22.5 0Z" fill="#BCEC30" fill-opacity="1.000000" fill-rule="evenodd"/>
		<path id="Star 5" d="M17.5 13.5L4 18.5L17.5 23.49L22.5 37L27.49 23.49L41 18.5L27.49 13.5L22.5 0L17.5 13.5ZM22.5 2.88L18.28 14.28L6.88 18.5L18.28 22.71L22.5 34.11L26.71 22.71L38.11 18.5L26.71 14.28L22.5 2.88Z" fill="#202027" fill-opacity="1.000000" fill-rule="evenodd"/>
	</g>
</svg>
