<svg width="574.083008" height="574.841614" viewBox="0 0 574.083 574.842" fill="none" xmlns="http://www.w3.org/2000/svg" xmlns:xlink="http://www.w3.org/1999/xlink">
	<desc>
			Created with Pixso.
	</desc>
	<defs>
		<filter id="filter_15_4755_dd" x="0.000000" y="0.000000" width="574.083008" height="574.841614" filterUnits="userSpaceOnUse" color-interpolation-filters="sRGB">
			<feFlood flood-opacity="0" result="BackgroundImageFix"/>
			<feColorMatrix in="SourceAlpha" type="matrix" values="0 0 0 0 0 0 0 0 0 0 0 0 0 0 0 0 0 0 127 0" result="hardAlpha"/>
			<feOffset dx="0" dy="4"/>
			<feGaussianBlur stdDeviation="1.33333"/>
			<feComposite in2="hardAlpha" operator="out" k2="-1" k3="1"/>
			<feColorMatrix type="matrix" values="0 0 0 0 0 0 0 0 0 0 0 0 0 0 0 0 0 0 0.25 0"/>
			<feBlend mode="normal" in2="BackgroundImageFix" result="effect_dropShadow_1"/>
			<feBlend mode="normal" in="SourceGraphic" in2="effect_dropShadow_1" result="shape"/>
		</filter>
	</defs>
	<g filter="url(#filter_15_4755_dd)">
		<path id="Star 1" d="M219.39 196.12L30.9 136.25L168.33 278.47L4 388.52L200.88 369.75L184.45 566.84L292.53 401.21L436.38 536.93L374.27 349.16L570.08 321.32L384.55 252.81L484.86 82.36L315.62 184.69L244.91 0L219.39 196.12ZM245.39 4.05L220.23 197.43L34.37 138.4L169.88 278.64L7.84 387.14L201.97 368.64L185.78 562.98L292.35 399.66L434.19 533.49L372.95 348.34L566.02 320.89L383.08 253.33L481.99 85.26L315.12 186.17L245.39 4.05Z" fill="#BCEC30" fill-opacity="1.000000" fill-rule="evenodd"/>
	</g>
</svg>
