<svg width="815.753906" height="794.936890" viewBox="0 0 815.754 794.937" fill="none" xmlns="http://www.w3.org/2000/svg" xmlns:xlink="http://www.w3.org/1999/xlink">
	<desc>
			Created with Pixso.
	</desc>
	<defs>
		<filter id="filter_22_2216_dd" x="0.000000" y="0.000000" width="815.753906" height="794.936890" filterUnits="userSpaceOnUse" color-interpolation-filters="sRGB">
			<feFlood flood-opacity="0" result="BackgroundImageFix"/>
			<feColorMatrix in="SourceAlpha" type="matrix" values="0 0 0 0 0 0 0 0 0 0 0 0 0 0 0 0 0 0 127 0" result="hardAlpha"/>
			<feOffset dx="0" dy="4"/>
			<feGaussianBlur stdDeviation="1.33333"/>
			<feComposite in2="hardAlpha" operator="out" k2="-1" k3="1"/>
			<feColorMatrix type="matrix" values="0 0 0 0 0 0 0 0 0 0 0 0 0 0 0 0 0 0 0.25 0"/>
			<feBlend mode="normal" in2="BackgroundImageFix" result="effect_dropShadow_1"/>
			<feBlend mode="normal" in="SourceGraphic" in2="effect_dropShadow_1" result="shape"/>
		</filter>
	</defs>
	<g filter="url(#filter_22_2216_dd)">
		<path id="Vector" d="M537.96 307.53C547.38 310.16 809.79 421.09 809.79 421.09L531.38 450.97L707.27 676.78L459.31 522.54L434.04 783.98L364.16 508.66L131.21 639.62L291.68 447.39L6.9 434.41L274.57 354.15L75.68 125.08L355.31 256.63L419.3 2.81L448.04 257.17L702.75 81.73L537.96 307.53Z" fill="#BCEC30" fill-opacity="1.000000" fill-rule="nonzero"/>
		<path id="Vector" d="M809.79 421.09L531.38 450.97L707.27 676.78L459.31 522.54L434.04 783.98L364.16 508.66L131.21 639.62L291.68 447.39L6.9 434.41L274.57 354.15L75.68 125.08L355.31 256.63L419.3 2.81L448.04 257.17L702.75 81.73L537.96 307.53C547.38 310.16 809.79 421.09 809.79 421.09Z" stroke="#202027" stroke-opacity="1.000000" stroke-width="1.000000"/>
	</g>
</svg>
